<svg xmlns="http://www.w3.org/2000/svg" width="24.198" height="24.198" viewBox="0 0 24.198 24.198"><defs><style>.a{fill:#333;}</style></defs><path class="a" d="M12.1,1A12.076,12.076,0,0,0,3.847,4.255L2.19,2.6Q1.62,4.184,1.146,5.8T.288,9.066Q1.91,8.7,3.569,8.222T6.76,7.166L4.994,5.4a10.476,10.476,0,1,1-3.353,8.506H.025A12.112,12.112,0,1,0,12.1,1ZM11.3,5.84v8.4l3.872,3.867,1.144-1.142-3.4-3.393V5.84Zm9.857,17.7.044.058-.023-.035-.021-.021Zm-19.73.008c0,.008-.016.015-.021.021l-.023.035Z" transform="translate(-0.025 -1)"/></svg>