<svg xmlns="http://www.w3.org/2000/svg" width="21.176" height="24" viewBox="0 0 21.176 24">
  <path id="ico-trash-white" d="M21.49,5.655a.933.933,0,0,1,.988.988.933.933,0,0,1-.988.988H7.655a.933.933,0,0,1-.988-.988.933.933,0,0,1,.988-.988h3.953l.988-.988h3.953l.988.988H21.49ZM12.8,24.431H9.632a1.982,1.982,0,0,1-1.976-1.976V9.608H21.491v3.558q-.349-.029-.706-.029a8.469,8.469,0,0,0-2.654.424V12.374H16.649v1.839A8.475,8.475,0,0,0,12.4,20.4v-8.03H10.918v9.388h1.4A8.45,8.45,0,0,0,12.8,24.43Zm7.988,4.236a7.059,7.059,0,1,1,7.059-7.059A7.059,7.059,0,0,1,20.784,28.667Zm1.3-7.248,1.633-1.633a.918.918,0,0,0-1.3-1.3l-1.633,1.633-1.633-1.633a.918.918,0,0,0-1.3,1.3l1.633,1.633-1.633,1.633a.918.918,0,0,0,1.3,1.3l1.633-1.633,1.633,1.633a.918.918,0,0,0,1.3-1.3Z" transform="translate(-6.667 -4.667)" fill="#fff"/>
</svg>
