<svg xmlns="http://www.w3.org/2000/svg" width="22.007" height="19.069" viewBox="0 0 22.007 19.069"><defs><style>.a{fill:#fff;}</style></defs><g transform="translate(-0.994 -3)"><path class="a" d="M1.732,22.069A.733.733,0,0,1,1,21.255l.565-5.134a.733.733,0,0,1,.213-.433l12-12a2.347,2.347,0,0,1,3.322,0L19.378,5.97a2.347,2.347,0,0,1,0,3.322L7.386,21.284a.733.733,0,0,1-.433.213l-5.134.565Zm5.134-1.305ZM3,16.532l-.44,3.975,3.975-.44L18.344,8.259a.88.88,0,0,0,0-1.247L16.056,4.724a.88.88,0,0,0-1.247,0Z"/><path class="a" d="M21.077,12.015a.733.733,0,0,1-.521-.213L16,7.233a.736.736,0,1,1,1.041-1.041l4.569,4.569a.734.734,0,0,1-.535,1.254Z" transform="translate(-3.943 -0.793)"/><rect class="a" width="8.075" height="1.467" transform="translate(6.352 15.68) rotate(-45)"/><path class="a" d="M25.468,28.467H13.733a.733.733,0,1,1,0-1.467H25.468a.733.733,0,1,1,0,1.467Z" transform="translate(-3.201 -6.398)"/></g></svg>