<svg xmlns="http://www.w3.org/2000/svg" width="20.257" height="20.261" viewBox="0 0 20.257 20.261"><defs><style>.a{fill:#333;}</style></defs><g transform="translate(-2.006 -2)"><g transform="translate(2.006 2)"><path class="a" d="M22.1,18.187l-2.641-3.242-.094-5.709a.723.723,0,0,0,0-.116C18.536,4.591,15.9,2,12.132,2c-3.98,0-7.178,2.894-7.96,7.106a.724.724,0,0,0,0,.13l-.094,5.789L2.1,18.267a.738.738,0,0,0,.622,1.1H9.238a2.894,2.894,0,0,0,5.789,0h6.513a.727.727,0,0,0,.564-1.179Zm-9.971,2.627a1.447,1.447,0,0,1-1.447-1.447H13.58A1.447,1.447,0,0,1,12.132,20.814ZM4.006,17.92l1.447-2.345a.724.724,0,0,0,.1-.362l.065-5.9C6.278,5.8,8.89,3.447,12.132,3.447c4.074,0,5.376,3.618,5.789,5.861l.1,5.9a.724.724,0,0,0,.159.449L20.02,17.92Z" transform="translate(-2.006 -2)"/></g></g></svg>