<svg xmlns="http://www.w3.org/2000/svg" width="307.137" height="344.795" viewBox="0 0 307.137 344.795">
  <g id="illu-point" transform="translate(-359.5 -385)">
    <path id="패스_1" data-name="패스 1" d="M1065.375,418.178c-.883-.3-1.766-.53-2.648-.757a49.181,49.181,0,0,0-5.3-1.059l-.908-.151a7.87,7.87,0,0,1-6.734-6.709c-.025-.3-.076-.605-.126-.933a50,50,0,0,0-1.059-5.272q-.353-1.312-.757-2.648a28.127,28.127,0,0,0-.984-2.648c-.4.883-.706,1.766-1.009,2.648s-.53,1.766-.757,2.648c-.429,1.766-.782,3.531-1.059,5.272-.05.3-.076.605-.126.883a7.869,7.869,0,0,1-6.734,6.734l-.908.126q-2.648.4-5.3,1.059c-.883.227-1.74.479-2.623.782a22.731,22.731,0,0,0-2.648,1.009,22.72,22.72,0,0,0,2.648,1.009c.883.3,1.74.555,2.623.782q2.648.631,5.3,1.059l.883.126a7.869,7.869,0,0,1,6.734,6.734c.025.277.076.58.126.883a49.972,49.972,0,0,0,1.059,5.272c.227.883.479,1.766.782,2.648a22.744,22.744,0,0,0,1.009,2.648c.4-.883.706-1.766,1.009-2.648s.53-1.766.757-2.648c.454-1.766.807-3.531,1.085-5.272.025-.3.076-.605.126-.908a7.844,7.844,0,0,1,6.709-6.734l.883-.151a49.189,49.189,0,0,0,5.3-1.059c.883-.227,1.766-.454,2.648-.757a22.525,22.525,0,0,0,2.648-.984A22.518,22.518,0,0,0,1065.375,418.178Z" transform="translate(-498.166 -9.721)" fill="#f4c23f"/>
    <path id="패스_2" data-name="패스 2" d="M383.083,633.906a15.165,15.165,0,0,0-1.589-.454,27.477,27.477,0,0,0-3.128-.631l-.555-.076a4.692,4.692,0,0,1-3.985-4.01l-.076-.53c-.177-1.059-.378-2.093-.631-3.153l-.454-1.564a13.653,13.653,0,0,0-.605-1.589c-.227.53-.4,1.059-.58,1.589s-.328,1.034-.454,1.564c-.252,1.059-.479,2.094-.631,3.153l-.076.53a4.666,4.666,0,0,1-4.01,3.985l-.53.076c-1.059.151-2.094.378-3.153.631l-1.564.454a16.669,16.669,0,0,0-1.564.605,11.782,11.782,0,0,0,1.564.605c.53.177,1.034.328,1.564.454a27.885,27.885,0,0,0,3.153.631l.53.076a4.691,4.691,0,0,1,3.985,4.01l.076.53c.151,1.034.378,2.094.631,3.128l.454,1.589c.177.5.378,1.034.605,1.564a18.288,18.288,0,0,0,1.059-3.153,27.468,27.468,0,0,0,.631-3.128l.076-.555a4.742,4.742,0,0,1,4.01-4.01,1.918,1.918,0,0,0,.53-.076,27.464,27.464,0,0,0,3.128-.631l1.589-.429a15.246,15.246,0,0,0,1.564-.605C384.117,634.259,383.588,634.083,383.083,633.906Z" transform="translate(0 -177.147)" fill="#f4c23f"/>
    <circle id="타원_1" data-name="타원 1" cx="7.996" cy="7.996" r="7.996" transform="translate(622.523 385)" fill="#f4c23f"/>
    <path id="패스_3" data-name="패스 3" d="M1025.7,1390.3v30.292c0,12.738,30.242,23.054,67.572,23.054s67.572-10.316,67.572-23.054V1390.3Z" transform="translate(-498.166 -751.736)" fill="#f8881b"/>
    <path id="패스_4" data-name="패스 4" d="M1093.272,1505.654c-37.33,0-67.572-10.316-67.572-23.054v7.012c0,12.738,30.242,23.054,67.572,23.054s67.572-10.316,67.572-23.054V1482.6C1160.843,1495.337,1130.6,1505.654,1093.272,1505.654Z" transform="translate(-498.166 -820.755)" fill="#f08000"/>
    <path id="패스_5" data-name="패스 5" d="M1429.8,1440.443c1.967-.4,3.884-.832,5.726-1.286V1390.3H1429.8Z" transform="translate(-800.341 -751.736)" fill="#f08000"/>
    <path id="패스_6" data-name="패스 6" d="M1339,1443.318c1.942-.126,3.834-.252,5.726-.429V1390.3H1339Z" transform="translate(-732.443 -751.736)" fill="#f08000"/>
    <path id="패스_7" data-name="패스 7" d="M1520.6,1432.851a32.793,32.793,0,0,0,5.726-3.884V1390.3H1520.6Z" transform="translate(-868.239 -751.736)" fill="#f08000"/>
    <path id="패스_8" data-name="패스 8" d="M1157.4,1440.443c1.841.378,3.758.731,5.726,1.034V1390.3H1157.4Z" transform="translate(-596.648 -751.736)" fill="#f08000"/>
    <path id="패스_9" data-name="패스 9" d="M1066.6,1432.851a52.963,52.963,0,0,0,5.726,2.648v-45.2H1066.6Z" transform="translate(-528.75 -751.736)" fill="#f08000"/>
    <path id="패스_10" data-name="패스 10" d="M1248.2,1443.318c1.892.1,3.783.2,5.726.252V1390.3H1248.2Z" transform="translate(-664.545 -751.736)" fill="#f08000"/>
    <ellipse id="타원_2" data-name="타원 2" cx="67.572" cy="23.054" rx="67.572" ry="23.054" transform="translate(527.534 615.511)" fill="#f4a93f"/>
    <path id="패스_11" data-name="패스 11" d="M1118.4,1361.657c-16.269,0-31.7-2.043-43.433-5.751s-15.31-7.794-15.663-8.828c.353-1.009,3.758-5.019,15.663-8.8s27.165-5.776,43.433-5.776,31.68,2.068,43.408,5.776,15.335,7.794,15.663,8.8c-.328,1.034-3.733,5.045-15.663,8.828S1134.666,1361.657,1118.4,1361.657Z" transform="translate(-523.291 -708.515)" fill="#f4c23f"/>
    <path id="패스_12" data-name="패스 12" d="M1025.7,1272.5v30.292c0,12.712,30.242,23.054,67.572,23.054s67.572-10.341,67.572-23.054V1272.5Z" transform="translate(-498.166 -663.648)" fill="#f8881b"/>
    <path id="패스_13" data-name="패스 13" d="M1093.272,1387.854c-37.33,0-67.572-10.316-67.572-23.054v7.012c0,12.712,30.242,23.054,67.572,23.054s67.572-10.341,67.572-23.054V1364.8C1160.843,1377.537,1130.6,1387.854,1093.272,1387.854Z" transform="translate(-498.166 -732.668)" fill="#f08000"/>
    <path id="패스_14" data-name="패스 14" d="M1429.8,1322.643c1.967-.4,3.884-.832,5.726-1.286V1272.5H1429.8Z" transform="translate(-800.341 -663.648)" fill="#f08000"/>
    <path id="패스_15" data-name="패스 15" d="M1339,1325.518c1.942-.126,3.834-.252,5.726-.429V1272.5H1339Z" transform="translate(-732.443 -663.648)" fill="#f08000"/>
    <path id="패스_16" data-name="패스 16" d="M1520.6,1315.026a31.4,31.4,0,0,0,5.725-3.859V1272.5H1520.6Z" transform="translate(-868.239 -663.648)" fill="#f08000"/>
    <path id="패스_17" data-name="패스 17" d="M1157.4,1322.643c1.841.378,3.758.706,5.726,1.034V1272.5H1157.4Z" transform="translate(-596.648 -663.648)" fill="#f08000"/>
    <path id="패스_18" data-name="패스 18" d="M1066.6,1315.026a52.892,52.892,0,0,0,5.726,2.674v-45.2H1066.6Z" transform="translate(-528.75 -663.648)" fill="#f08000"/>
    <path id="패스_19" data-name="패스 19" d="M1248.2,1325.518c1.892.1,3.783.177,5.726.227V1272.5H1248.2Z" transform="translate(-664.545 -663.648)" fill="#f08000"/>
    <ellipse id="타원_3" data-name="타원 3" cx="67.572" cy="23.054" rx="67.572" ry="23.054" transform="translate(527.534 585.798)" fill="#f4a93f"/>
    <path id="패스_20" data-name="패스 20" d="M1118.4,1243.857c-16.269,0-31.7-2.043-43.433-5.751s-15.31-7.794-15.663-8.828c.353-1.009,3.758-5.045,15.663-8.8s27.165-5.776,43.433-5.776,31.68,2.043,43.408,5.776,15.335,7.794,15.663,8.8c-.328,1.034-3.733,5.045-15.663,8.828S1134.666,1243.857,1118.4,1243.857Z" transform="translate(-523.291 -620.427)" fill="#f4c23f"/>
    <path id="패스_21" data-name="패스 21" d="M1025.7,1154.7v30.267c0,12.737,30.242,23.053,67.572,23.053s67.572-10.316,67.572-23.053V1154.7Z" transform="translate(-498.166 -575.561)" fill="#f8881b"/>
    <path id="패스_22" data-name="패스 22" d="M1093.272,1270.054c-37.33,0-67.572-10.341-67.572-23.054v6.987c0,12.737,30.242,23.054,67.572,23.054s67.572-10.316,67.572-23.054V1247C1160.843,1259.712,1130.6,1270.054,1093.272,1270.054Z" transform="translate(-498.166 -644.58)" fill="#f08000"/>
    <path id="패스_23" data-name="패스 23" d="M1429.8,1204.818c1.967-.378,3.884-.807,5.726-1.286V1154.7H1429.8Z" transform="translate(-800.341 -575.561)" fill="#f08000"/>
    <path id="패스_24" data-name="패스 24" d="M1339,1207.693c1.942-.1,3.834-.252,5.726-.4V1154.7H1339Z" transform="translate(-732.443 -575.561)" fill="#f08000"/>
    <path id="패스_25" data-name="패스 25" d="M1520.6,1197.226a31.459,31.459,0,0,0,5.726-3.884V1154.7H1520.6Z" transform="translate(-868.239 -575.561)" fill="#f08000"/>
    <path id="패스_26" data-name="패스 26" d="M1157.4,1204.843c1.841.353,3.758.706,5.726,1.009V1154.7H1157.4Z" transform="translate(-596.648 -575.561)" fill="#f08000"/>
    <path id="패스_27" data-name="패스 27" d="M1066.6,1197.226a52.962,52.962,0,0,0,5.726,2.648V1154.7H1066.6Z" transform="translate(-528.75 -575.561)" fill="#f08000"/>
    <path id="패스_28" data-name="패스 28" d="M1248.2,1207.693c1.892.126,3.783.2,5.726.252V1154.7H1248.2Z" transform="translate(-664.545 -575.561)" fill="#f08000"/>
    <ellipse id="타원_4" data-name="타원 4" cx="67.572" cy="23.054" rx="67.572" ry="23.054" transform="translate(527.534 556.086)" fill="#f4a93f"/>
    <path id="패스_29" data-name="패스 29" d="M1118.4,1126.057c-16.269,0-31.7-2.043-43.433-5.776s-15.31-7.794-15.663-8.8c.353-1.034,3.758-5.045,15.663-8.828s27.165-5.751,43.433-5.751,31.68,2.043,43.408,5.751,15.335,7.794,15.663,8.828c-.328,1.009-3.733,5.019-15.663,8.8S1134.666,1126.057,1118.4,1126.057Z" transform="translate(-523.291 -532.339)" fill="#f4c23f"/>
    <path id="패스_30" data-name="패스 30" d="M1025.7,1036.8v30.292c0,12.738,30.242,23.054,67.572,23.054s67.572-10.316,67.572-23.054V1036.8Z" transform="translate(-498.166 -487.398)" fill="#f8881b"/>
    <path id="패스_31" data-name="패스 31" d="M1093.272,1152.154c-37.33,0-67.572-10.316-67.572-23.054v7.012c0,12.737,30.242,23.054,67.572,23.054s67.572-10.316,67.572-23.054V1129.1C1160.843,1141.838,1130.6,1152.154,1093.272,1152.154Z" transform="translate(-498.166 -556.418)" fill="#f08000"/>
    <path id="패스_32" data-name="패스 32" d="M1429.8,1086.943c1.967-.4,3.884-.832,5.726-1.286V1036.8H1429.8Z" transform="translate(-800.341 -487.398)" fill="#f08000"/>
    <path id="패스_33" data-name="패스 33" d="M1339,1089.818c1.942-.126,3.834-.252,5.726-.429V1036.8H1339Z" transform="translate(-732.443 -487.398)" fill="#f08000"/>
    <path id="패스_34" data-name="패스 34" d="M1520.6,1079.326a31.405,31.405,0,0,0,5.725-3.859V1036.8H1520.6Z" transform="translate(-868.239 -487.398)" fill="#f08000"/>
    <path id="패스_35" data-name="패스 35" d="M1157.4,1086.943c1.841.378,3.758.731,5.726,1.034V1036.8H1157.4Z" transform="translate(-596.648 -487.398)" fill="#f08000"/>
    <path id="패스_36" data-name="패스 36" d="M1066.6,1079.351a52.963,52.963,0,0,0,5.726,2.648v-45.2H1066.6Z" transform="translate(-528.75 -487.398)" fill="#f08000"/>
    <path id="패스_37" data-name="패스 37" d="M1248.2,1089.818l5.726.252V1036.8H1248.2Z" transform="translate(-664.545 -487.398)" fill="#f08000"/>
    <ellipse id="타원_5" data-name="타원 5" cx="67.572" cy="23.054" rx="67.572" ry="23.054" transform="translate(527.534 526.348)" fill="#f4a93f"/>
    <path id="패스_38" data-name="패스 38" d="M1118.4,1008.157c-16.269,0-31.7-2.043-43.433-5.751s-15.31-7.794-15.663-8.828c.353-1.009,3.758-5.019,15.663-8.8S1102.128,979,1118.4,979s31.68,2.043,43.408,5.776,15.335,7.794,15.663,8.8c-.328,1.034-3.733,5.045-15.663,8.828S1134.666,1008.157,1118.4,1008.157Z" transform="translate(-523.291 -444.177)" fill="#f4c23f"/>
    <path id="패스_39" data-name="패스 39" d="M1025.7,919v30.292c0,12.712,30.242,23.054,67.572,23.054s67.572-10.341,67.572-23.054V919Z" transform="translate(-498.166 -399.311)" fill="#f8881b"/>
    <path id="패스_40" data-name="패스 40" d="M1093.272,1034.354c-37.33,0-67.572-10.316-67.572-23.054v7.012c0,12.712,30.242,23.054,67.572,23.054s67.572-10.341,67.572-23.054V1011.3C1160.843,1024.037,1130.6,1034.354,1093.272,1034.354Z" transform="translate(-498.166 -468.33)" fill="#f08000"/>
    <path id="패스_41" data-name="패스 41" d="M1429.8,969.143c1.967-.4,3.884-.832,5.726-1.286V919H1429.8Z" transform="translate(-800.341 -399.311)" fill="#f08000"/>
    <path id="패스_42" data-name="패스 42" d="M1339,971.993c1.942-.1,3.834-.252,5.726-.4V919H1339Z" transform="translate(-732.443 -399.311)" fill="#f08000"/>
    <path id="패스_43" data-name="패스 43" d="M1520.6,961.526a31.4,31.4,0,0,0,5.725-3.859V919H1520.6Z" transform="translate(-868.239 -399.311)" fill="#f08000"/>
    <path id="패스_44" data-name="패스 44" d="M1157.4,969.143c1.841.378,3.758.706,5.726,1.034V919H1157.4Z" transform="translate(-596.648 -399.311)" fill="#f08000"/>
    <path id="패스_45" data-name="패스 45" d="M1066.6,961.526a52.892,52.892,0,0,0,5.726,2.674V919H1066.6Z" transform="translate(-528.75 -399.311)" fill="#f08000"/>
    <path id="패스_46" data-name="패스 46" d="M1248.2,972.018c1.892.1,3.783.177,5.726.227V919H1248.2Z" transform="translate(-664.545 -399.311)" fill="#f08000"/>
    <ellipse id="타원_6" data-name="타원 6" cx="67.572" cy="23.054" rx="67.572" ry="23.054" transform="translate(527.534 496.636)" fill="#f4a93f"/>
    <path id="패스_47" data-name="패스 47" d="M1118.4,890.357c-16.269,0-31.7-2.043-43.433-5.776s-15.31-7.794-15.663-8.8c.353-1.034,3.758-5.044,15.663-8.828s27.165-5.751,43.433-5.751,31.68,2.043,43.408,5.751,15.335,7.794,15.663,8.828c-.328,1.009-3.733,5.045-15.663,8.8S1134.666,890.357,1118.4,890.357Z" transform="translate(-523.291 -356.089)" fill="#f4c23f"/>
    <path id="패스_48" data-name="패스 48" d="M1025.7,801.2v30.267c0,12.737,30.242,23.054,67.572,23.054s67.572-10.316,67.572-23.054V801.2Z" transform="translate(-498.166 -311.223)" fill="#f8881b"/>
    <path id="패스_49" data-name="패스 49" d="M1093.272,916.479c-37.33,0-67.572-10.341-67.572-23.079v7.012c0,12.737,30.242,23.054,67.572,23.054s67.572-10.316,67.572-23.054V893.4C1160.843,906.138,1130.6,916.479,1093.272,916.479Z" transform="translate(-498.166 -380.168)" fill="#f08000"/>
    <path id="패스_50" data-name="패스 50" d="M1429.8,851.318c1.967-.378,3.884-.807,5.726-1.286V801.2H1429.8Z" transform="translate(-800.341 -311.223)" fill="#f08000"/>
    <path id="패스_51" data-name="패스 51" d="M1339,854.193c1.942-.1,3.834-.252,5.726-.429V801.2H1339Z" transform="translate(-732.443 -311.223)" fill="#f08000"/>
    <path id="패스_52" data-name="패스 52" d="M1520.6,843.726a32.789,32.789,0,0,0,5.726-3.884V801.2H1520.6Z" transform="translate(-868.239 -311.223)" fill="#f08000"/>
    <path id="패스_53" data-name="패스 53" d="M1157.4,851.318c1.841.378,3.758.731,5.726,1.034V801.2H1157.4Z" transform="translate(-596.648 -311.223)" fill="#f08000"/>
    <path id="패스_54" data-name="패스 54" d="M1066.6,843.726a52.939,52.939,0,0,0,5.726,2.648V801.2H1066.6Z" transform="translate(-528.75 -311.223)" fill="#f08000"/>
    <path id="패스_55" data-name="패스 55" d="M1248.2,854.193c1.892.1,3.783.2,5.726.252V801.2H1248.2Z" transform="translate(-664.545 -311.223)" fill="#f08000"/>
    <ellipse id="타원_7" data-name="타원 7" cx="67.572" cy="23.054" rx="67.572" ry="23.054" transform="translate(527.534 466.923)" fill="#f4a93f"/>
    <path id="패스_56" data-name="패스 56" d="M1118.4,772.557c-16.269,0-31.7-2.068-43.433-5.776s-15.31-7.794-15.663-8.8c.353-1.034,3.758-5.045,15.663-8.828s27.165-5.751,43.433-5.751,31.68,2.043,43.408,5.751,15.335,7.794,15.663,8.828c-.328,1.009-3.733,5.019-15.663,8.8S1134.666,772.557,1118.4,772.557Z" transform="translate(-523.291 -268.002)" fill="#f4c23f"/>
    <path id="패스_57" data-name="패스 57" d="M1025.7,683.3v30.293c0,12.737,30.242,23.054,67.572,23.054s67.572-10.316,67.572-23.054V683.3Z" transform="translate(-498.166 -223.061)" fill="#f8881b"/>
    <path id="패스_58" data-name="패스 58" d="M1093.272,798.654c-37.33,0-67.572-10.316-67.572-23.054v7.012c0,12.737,30.242,23.054,67.572,23.054s67.572-10.316,67.572-23.054V775.6C1160.843,788.337,1130.6,798.654,1093.272,798.654Z" transform="translate(-498.166 -292.08)" fill="#f08000"/>
    <path id="패스_59" data-name="패스 59" d="M1429.8,733.443c1.967-.4,3.884-.832,5.726-1.286V683.3H1429.8Z" transform="translate(-800.341 -223.061)" fill="#f08000"/>
    <path id="패스_60" data-name="패스 60" d="M1339,736.318c1.942-.126,3.834-.252,5.726-.429V683.3H1339Z" transform="translate(-732.443 -223.061)" fill="#f08000"/>
    <path id="패스_61" data-name="패스 61" d="M1520.6,725.826a31.4,31.4,0,0,0,5.725-3.859V683.3H1520.6Z" transform="translate(-868.239 -223.061)" fill="#f08000"/>
    <path id="패스_62" data-name="패스 62" d="M1157.4,733.443c1.841.378,3.758.731,5.726,1.034V683.3H1157.4Z" transform="translate(-596.648 -223.061)" fill="#f08000"/>
    <path id="패스_63" data-name="패스 63" d="M1066.6,725.851a52.951,52.951,0,0,0,5.726,2.648V683.3H1066.6Z" transform="translate(-528.75 -223.061)" fill="#f08000"/>
    <path id="패스_64" data-name="패스 64" d="M1248.2,736.318l5.726.252V683.3H1248.2Z" transform="translate(-664.545 -223.061)" fill="#f08000"/>
    <ellipse id="타원_8" data-name="타원 8" cx="67.572" cy="23.054" rx="67.572" ry="23.054" transform="translate(527.534 437.186)" fill="#f4a93f"/>
    <path id="패스_65" data-name="패스 65" d="M1118.4,654.657c-16.269,0-31.7-2.043-43.433-5.751s-15.31-7.794-15.663-8.828c.353-1.009,3.758-5.019,15.663-8.8s27.165-5.776,43.433-5.776,31.68,2.043,43.408,5.776,15.335,7.794,15.663,8.8c-.328,1.034-3.733,5.045-15.663,8.828S1134.666,654.657,1118.4,654.657Z" transform="translate(-523.291 -179.839)" fill="#f4c23f"/>
    <path id="패스_66" data-name="패스 66" d="M461.3,1390.3v30.292c0,12.738,30.242,23.054,67.572,23.054s67.572-10.316,67.572-23.054V1390.3Z" transform="translate(-76.123 -751.736)" fill="#f8881b"/>
    <path id="패스_67" data-name="패스 67" d="M528.872,1505.654c-37.33,0-67.572-10.316-67.572-23.054v7.012c0,12.738,30.242,23.054,67.572,23.054s67.572-10.316,67.572-23.054V1482.6C596.443,1495.337,566.2,1505.654,528.872,1505.654Z" transform="translate(-76.123 -820.755)" fill="#f08000"/>
    <path id="패스_68" data-name="패스 68" d="M865.4,1440.443c1.967-.4,3.884-.832,5.726-1.286V1390.3H865.4Z" transform="translate(-378.298 -751.736)" fill="#f08000"/>
    <path id="패스_69" data-name="패스 69" d="M774.6,1443.318c1.942-.126,3.834-.252,5.726-.429V1390.3H774.6Z" transform="translate(-310.4 -751.736)" fill="#f08000"/>
    <path id="패스_70" data-name="패스 70" d="M956.2,1432.851a32.79,32.79,0,0,0,5.726-3.884V1390.3H956.2Z" transform="translate(-446.196 -751.736)" fill="#f08000"/>
    <path id="패스_71" data-name="패스 71" d="M593,1440.443c1.867.378,3.758.731,5.726,1.034V1390.3H593Z" transform="translate(-174.605 -751.736)" fill="#f08000"/>
    <path id="패스_72" data-name="패스 72" d="M502.2,1432.851a52.934,52.934,0,0,0,5.726,2.648v-45.2H502.2Z" transform="translate(-106.707 -751.736)" fill="#f08000"/>
    <path id="패스_73" data-name="패스 73" d="M683.8,1443.318c1.892.1,3.783.2,5.726.252V1390.3H683.8Z" transform="translate(-242.503 -751.736)" fill="#f08000"/>
    <ellipse id="타원_9" data-name="타원 9" cx="67.572" cy="23.054" rx="67.572" ry="23.054" transform="translate(385.177 615.511)" fill="#f4a93f"/>
    <path id="패스_74" data-name="패스 74" d="M554,1361.657c-16.269,0-31.705-2.043-43.434-5.751s-15.31-7.794-15.663-8.828c.353-1.009,3.758-5.019,15.663-8.8S537.728,1332.5,554,1332.5s31.7,2.068,43.434,5.776,15.31,7.794,15.663,8.8c-.353,1.034-3.758,5.045-15.663,8.828S570.266,1361.657,554,1361.657Z" transform="translate(-101.248 -708.515)" fill="#f4c23f"/>
    <path id="패스_75" data-name="패스 75" d="M461.3,1272.5v30.292c0,12.712,30.242,23.054,67.572,23.054s67.572-10.341,67.572-23.054V1272.5Z" transform="translate(-76.123 -663.648)" fill="#f8881b"/>
    <path id="패스_76" data-name="패스 76" d="M528.872,1387.854c-37.33,0-67.572-10.316-67.572-23.054v7.012c0,12.712,30.242,23.054,67.572,23.054s67.572-10.341,67.572-23.054V1364.8C596.443,1377.537,566.2,1387.854,528.872,1387.854Z" transform="translate(-76.123 -732.668)" fill="#f08000"/>
    <path id="패스_77" data-name="패스 77" d="M865.4,1322.643c1.967-.4,3.884-.832,5.726-1.286V1272.5H865.4Z" transform="translate(-378.298 -663.648)" fill="#f08000"/>
    <path id="패스_78" data-name="패스 78" d="M774.6,1325.518c1.942-.126,3.834-.252,5.726-.429V1272.5H774.6Z" transform="translate(-310.4 -663.648)" fill="#f08000"/>
    <path id="패스_79" data-name="패스 79" d="M956.2,1315.026a31.4,31.4,0,0,0,5.726-3.859V1272.5H956.2Z" transform="translate(-446.196 -663.648)" fill="#f08000"/>
    <path id="패스_80" data-name="패스 80" d="M593,1322.643c1.867.378,3.758.706,5.726,1.034V1272.5H593Z" transform="translate(-174.605 -663.648)" fill="#f08000"/>
    <path id="패스_81" data-name="패스 81" d="M502.2,1315.026a52.881,52.881,0,0,0,5.726,2.674v-45.2H502.2Z" transform="translate(-106.707 -663.648)" fill="#f08000"/>
    <path id="패스_82" data-name="패스 82" d="M683.8,1325.518c1.892.1,3.783.177,5.726.227V1272.5H683.8Z" transform="translate(-242.503 -663.648)" fill="#f08000"/>
    <ellipse id="타원_10" data-name="타원 10" cx="67.572" cy="23.054" rx="67.572" ry="23.054" transform="translate(385.177 585.798)" fill="#f4a93f"/>
    <path id="패스_83" data-name="패스 83" d="M554,1243.857c-16.269,0-31.705-2.043-43.434-5.751s-15.31-7.794-15.663-8.828c.353-1.009,3.758-5.045,15.663-8.8S537.728,1214.7,554,1214.7s31.7,2.043,43.434,5.776,15.31,7.794,15.663,8.8c-.353,1.034-3.758,5.045-15.663,8.828S570.266,1243.857,554,1243.857Z" transform="translate(-101.248 -620.427)" fill="#f4c23f"/>
    <path id="패스_84" data-name="패스 84" d="M461.3,1154.7v30.267c0,12.737,30.242,23.053,67.572,23.053s67.572-10.316,67.572-23.053V1154.7Z" transform="translate(-76.123 -575.561)" fill="#f8881b"/>
    <path id="패스_85" data-name="패스 85" d="M528.872,1270.054c-37.33,0-67.572-10.341-67.572-23.054v6.987c0,12.737,30.242,23.054,67.572,23.054s67.572-10.316,67.572-23.054V1247C596.443,1259.712,566.2,1270.054,528.872,1270.054Z" transform="translate(-76.123 -644.58)" fill="#f08000"/>
    <path id="패스_86" data-name="패스 86" d="M865.4,1204.818c1.967-.378,3.884-.807,5.726-1.286V1154.7H865.4Z" transform="translate(-378.298 -575.561)" fill="#f08000"/>
    <path id="패스_87" data-name="패스 87" d="M774.6,1207.693c1.942-.1,3.834-.252,5.726-.4V1154.7H774.6Z" transform="translate(-310.4 -575.561)" fill="#f08000"/>
    <path id="패스_88" data-name="패스 88" d="M956.2,1197.226a31.456,31.456,0,0,0,5.726-3.884V1154.7H956.2Z" transform="translate(-446.196 -575.561)" fill="#f08000"/>
    <path id="패스_89" data-name="패스 89" d="M593,1204.843c1.867.353,3.758.706,5.726,1.009V1154.7H593Z" transform="translate(-174.605 -575.561)" fill="#f08000"/>
    <path id="패스_90" data-name="패스 90" d="M502.2,1197.226a52.933,52.933,0,0,0,5.726,2.648V1154.7H502.2Z" transform="translate(-106.707 -575.561)" fill="#f08000"/>
    <path id="패스_91" data-name="패스 91" d="M683.8,1207.693c1.892.126,3.783.2,5.726.252V1154.7H683.8Z" transform="translate(-242.503 -575.561)" fill="#f08000"/>
    <ellipse id="타원_11" data-name="타원 11" cx="67.572" cy="23.054" rx="67.572" ry="23.054" transform="translate(385.177 556.086)" fill="#f4a93f"/>
    <path id="패스_92" data-name="패스 92" d="M554,1126.057c-16.269,0-31.705-2.043-43.434-5.776s-15.31-7.794-15.663-8.8c.353-1.034,3.758-5.045,15.663-8.828S537.728,1096.9,554,1096.9s31.7,2.043,43.434,5.751,15.31,7.794,15.663,8.828c-.353,1.009-3.758,5.019-15.663,8.8S570.266,1126.057,554,1126.057Z" transform="translate(-101.248 -532.339)" fill="#f4c23f"/>
    <path id="패스_93" data-name="패스 93" d="M461.3,1036.8v30.292c0,12.738,30.242,23.054,67.572,23.054s67.572-10.316,67.572-23.054V1036.8Z" transform="translate(-76.123 -487.398)" fill="#f8881b"/>
    <path id="패스_94" data-name="패스 94" d="M528.872,1152.154c-37.33,0-67.572-10.316-67.572-23.054v7.012c0,12.737,30.242,23.054,67.572,23.054s67.572-10.316,67.572-23.054V1129.1C596.443,1141.838,566.2,1152.154,528.872,1152.154Z" transform="translate(-76.123 -556.418)" fill="#f08000"/>
    <path id="패스_95" data-name="패스 95" d="M865.4,1086.943c1.967-.4,3.884-.832,5.726-1.286V1036.8H865.4Z" transform="translate(-378.298 -487.398)" fill="#f08000"/>
    <path id="패스_96" data-name="패스 96" d="M774.6,1089.818c1.942-.126,3.834-.252,5.726-.429V1036.8H774.6Z" transform="translate(-310.4 -487.398)" fill="#f08000"/>
    <path id="패스_97" data-name="패스 97" d="M956.2,1079.326a31.41,31.41,0,0,0,5.726-3.859V1036.8H956.2Z" transform="translate(-446.196 -487.398)" fill="#f08000"/>
    <path id="패스_98" data-name="패스 98" d="M593,1086.943c1.867.378,3.758.731,5.726,1.034V1036.8H593Z" transform="translate(-174.605 -487.398)" fill="#f08000"/>
    <path id="패스_99" data-name="패스 99" d="M502.2,1079.351a52.934,52.934,0,0,0,5.726,2.648v-45.2H502.2Z" transform="translate(-106.707 -487.398)" fill="#f08000"/>
    <path id="패스_100" data-name="패스 100" d="M683.8,1089.818l5.726.252V1036.8H683.8Z" transform="translate(-242.503 -487.398)" fill="#f08000"/>
    <ellipse id="타원_12" data-name="타원 12" cx="67.572" cy="23.054" rx="67.572" ry="23.054" transform="translate(385.177 526.348)" fill="#f4a93f"/>
    <path id="패스_101" data-name="패스 101" d="M554,1008.157c-16.269,0-31.705-2.043-43.434-5.751s-15.31-7.794-15.663-8.828c.353-1.009,3.758-5.019,15.663-8.8S537.728,979,554,979s31.7,2.043,43.434,5.776,15.31,7.794,15.663,8.8c-.353,1.034-3.758,5.045-15.663,8.828S570.266,1008.157,554,1008.157Z" transform="translate(-101.248 -444.177)" fill="#f4c23f"/>
    <path id="패스_102" data-name="패스 102" d="M461.3,919v30.292c0,12.712,30.242,23.054,67.572,23.054S596.443,962,596.443,949.292V919Z" transform="translate(-76.123 -399.311)" fill="#f8881b"/>
    <path id="패스_103" data-name="패스 103" d="M528.872,1034.354c-37.33,0-67.572-10.316-67.572-23.054v7.012c0,12.712,30.242,23.054,67.572,23.054s67.572-10.341,67.572-23.054V1011.3C596.443,1024.037,566.2,1034.354,528.872,1034.354Z" transform="translate(-76.123 -468.33)" fill="#f08000"/>
    <path id="패스_104" data-name="패스 104" d="M865.4,969.143c1.967-.4,3.884-.832,5.726-1.286V919H865.4Z" transform="translate(-378.298 -399.311)" fill="#f08000"/>
    <path id="패스_105" data-name="패스 105" d="M774.6,971.993c1.942-.1,3.834-.252,5.726-.4V919H774.6Z" transform="translate(-310.4 -399.311)" fill="#f08000"/>
    <path id="패스_106" data-name="패스 106" d="M956.2,961.526a31.4,31.4,0,0,0,5.726-3.859V919H956.2Z" transform="translate(-446.196 -399.311)" fill="#f08000"/>
    <path id="패스_107" data-name="패스 107" d="M593,969.143c1.867.378,3.758.706,5.726,1.034V919H593Z" transform="translate(-174.605 -399.311)" fill="#f08000"/>
    <path id="패스_108" data-name="패스 108" d="M502.2,961.526a52.881,52.881,0,0,0,5.726,2.674V919H502.2Z" transform="translate(-106.707 -399.311)" fill="#f08000"/>
    <path id="패스_109" data-name="패스 109" d="M683.8,972.018c1.892.1,3.783.177,5.726.227V919H683.8Z" transform="translate(-242.503 -399.311)" fill="#f08000"/>
    <ellipse id="타원_13" data-name="타원 13" cx="67.572" cy="23.054" rx="67.572" ry="23.054" transform="translate(385.177 496.636)" fill="#f4a93f"/>
    <path id="패스_110" data-name="패스 110" d="M554,890.357c-16.269,0-31.705-2.043-43.434-5.776s-15.31-7.794-15.663-8.8c.353-1.034,3.758-5.045,15.663-8.828S537.728,861.2,554,861.2s31.7,2.043,43.434,5.751,15.31,7.794,15.663,8.828c-.353,1.009-3.758,5.044-15.663,8.8S570.266,890.357,554,890.357Z" transform="translate(-101.248 -356.089)" fill="#f4c23f"/>
    <path id="패스_111" data-name="패스 111" d="M461.3,801.2v30.267c0,12.737,30.242,23.054,67.572,23.054s67.572-10.316,67.572-23.054V801.2Z" transform="translate(-76.123 -311.223)" fill="#f8881b"/>
    <path id="패스_112" data-name="패스 112" d="M528.872,916.479c-37.33,0-67.572-10.341-67.572-23.079v7.012c0,12.737,30.242,23.054,67.572,23.054s67.572-10.316,67.572-23.054V893.4C596.443,906.138,566.2,916.479,528.872,916.479Z" transform="translate(-76.123 -380.168)" fill="#f08000"/>
    <path id="패스_113" data-name="패스 113" d="M865.4,851.318c1.967-.378,3.884-.807,5.726-1.286V801.2H865.4Z" transform="translate(-378.298 -311.223)" fill="#f08000"/>
    <path id="패스_114" data-name="패스 114" d="M774.6,854.193c1.942-.1,3.834-.252,5.726-.429V801.2H774.6Z" transform="translate(-310.4 -311.223)" fill="#f08000"/>
    <path id="패스_115" data-name="패스 115" d="M956.2,843.726a32.787,32.787,0,0,0,5.726-3.884V801.2H956.2Z" transform="translate(-446.196 -311.223)" fill="#f08000"/>
    <path id="패스_116" data-name="패스 116" d="M593,851.318c1.867.378,3.758.731,5.726,1.034V801.2H593Z" transform="translate(-174.605 -311.223)" fill="#f08000"/>
    <path id="패스_117" data-name="패스 117" d="M502.2,843.726a52.934,52.934,0,0,0,5.726,2.648V801.2H502.2Z" transform="translate(-106.707 -311.223)" fill="#f08000"/>
    <path id="패스_118" data-name="패스 118" d="M683.8,854.193c1.892.1,3.783.2,5.726.252V801.2H683.8Z" transform="translate(-242.503 -311.223)" fill="#f08000"/>
    <ellipse id="타원_14" data-name="타원 14" cx="67.572" cy="23.054" rx="67.572" ry="23.054" transform="translate(385.177 466.923)" fill="#f4a93f"/>
    <path id="패스_119" data-name="패스 119" d="M554,772.557c-16.269,0-31.705-2.068-43.434-5.776s-15.31-7.794-15.663-8.8c.353-1.034,3.758-5.045,15.663-8.828S537.728,743.4,554,743.4s31.7,2.043,43.434,5.751,15.31,7.794,15.663,8.828c-.353,1.009-3.758,5.019-15.663,8.8S570.266,772.557,554,772.557Z" transform="translate(-101.248 -268.002)" fill="#f4c23f"/>
    <path id="패스_120" data-name="패스 120" d="M1025.7,1088.1v47.066h0v59.45c0,5.095,4.843,9.812,13.04,13.62h0c12.283,5.726,32.134,9.433,54.532,9.433,2.169,0,4.313-.025,6.457-.1A91.358,91.358,0,0,0,1025.7,1088.1Z" transform="translate(-498.166 -525.759)" fill="#cf6b00"/>
    <path id="패스_121" data-name="패스 121" d="M665.724,1216.145h0l1.362-.076h.151l1.261-.076h.252l1.211-.1h.277a157.745,157.745,0,0,0,19.85-2.85h0l1.438-.3h.025l1.387-.3a.025.025,0,0,0,.025-.025c8.273-1.967,15.209-4.565,20.178-7.567h0l.757-.479h.025l.706-.479h.05l.656-.454h.05l.605-.479h.05l.605-.479h.025l.58-.479h0c2.951-2.6,4.591-5.423,4.591-8.374v-59.652h0V1086.5h-1.539a91.383,91.383,0,0,0-83.084,129.267c5.448.479,11.174.731,17.051.731C658.183,1216.473,662.016,1216.372,665.724,1216.145Z" transform="translate(-201.525 -524.563)" fill="#cf6b00"/>
    <circle id="타원_15" data-name="타원 15" cx="76.576" cy="76.576" r="76.576" transform="translate(442.205 576.642)" fill="#f8881b"/>
    <circle id="타원_16" data-name="타원 16" cx="67.673" cy="67.673" r="67.673" transform="translate(451.109 585.546)" fill="#f08000"/>
    <circle id="타원_17" data-name="타원 17" cx="60.03" cy="60.03" r="60.03" transform="translate(458.751 593.188)" fill="#f4c23f"/>
    <path id="패스_122" data-name="패스 122" d="M1055.027,1258.119c1.412,0,2.825-.076,4.212-.177a60.064,60.064,0,0,0-55.44-47.242A51.394,51.394,0,0,0,1055.027,1258.119Z" transform="translate(-481.79 -617.436)" fill="#fad564"/>
    <path id="패스_123" data-name="패스 123" d="M878.155,1356.418a8.853,8.853,0,0,1-8.853-8.853V1336.9h-16.37a8.853,8.853,0,1,1,0-17.681H889.96a4.565,4.565,0,0,0,0-9.131H866.326a22.246,22.246,0,1,1,0-44.468H869.3v-7.062a8.853,8.853,0,0,1,17.681,0v7.062h16.395a8.853,8.853,0,1,1,0,17.681H866.326a4.565,4.565,0,1,0,0,9.105H889.96a22.246,22.246,0,0,1,0,44.493h-2.976v10.669A8.853,8.853,0,0,1,878.155,1356.418Z" transform="translate(-361.795 -646.953)" fill="#f4a93f"/>
    <path id="패스_124" data-name="패스 124" d="M901.4,1286.152H877.77a6.2,6.2,0,1,1,0-12.384h37.052a7.214,7.214,0,1,0,0-14.4H896.788v-8.677a7.188,7.188,0,0,0-14.377,0v8.677H877.77a20.607,20.607,0,1,0,0,41.189H901.4a6.2,6.2,0,0,1,0,12.41H864.377a7.214,7.214,0,1,0,0,14.4h18.034V1339.7a7.188,7.188,0,0,0,14.377,0v-12.334H901.4a20.607,20.607,0,1,0,0-41.214Z" transform="translate(-371.6 -641.963)" fill="#cf6b00"/>
    <path id="패스_125" data-name="패스 125" d="M1449.075,902.278c-.883-.3-1.74-.53-2.623-.757a49.2,49.2,0,0,0-5.3-1.059l-.933-.151a7.844,7.844,0,0,1-6.709-6.709c-.05-.3-.076-.605-.126-.908q-.4-2.648-1.059-5.3-.328-1.312-.757-2.648c-.3-.883-.605-1.766-1.009-2.648a28.128,28.128,0,0,0-.984,2.648q-.429,1.337-.757,2.648a49.2,49.2,0,0,0-1.059,5.3c-.05.277-.1.58-.126.883a7.87,7.87,0,0,1-6.734,6.709l-.908.126c-1.766.277-3.531.631-5.3,1.085-.883.227-1.766.454-2.648.757a22.731,22.731,0,0,0-2.648,1.009,22.72,22.72,0,0,0,2.648,1.009c.883.3,1.766.555,2.648.782,1.766.454,3.531.782,5.3,1.059l.883.126a7.844,7.844,0,0,1,6.709,6.734c.05.277.1.58.126.883.277,1.766.631,3.506,1.085,5.272q.353,1.337.757,2.648c.3.883.605,1.766,1.009,2.648a22.715,22.715,0,0,0,1.009-2.648c.3-.883.555-1.766.782-2.648a48.752,48.752,0,0,0,1.059-5.272c.051-.3.1-.605.126-.908a7.869,7.869,0,0,1,6.734-6.734l.883-.126q2.648-.429,5.3-1.059c.883-.227,1.74-.479,2.623-.782a22.518,22.518,0,0,0,2.648-.984A22.526,22.526,0,0,0,1449.075,902.278Z" transform="translate(-785.087 -371.718)" fill="#f4c23f"/>
    <path id="패스_126" data-name="패스 126" d="M469.3,954.678c-.883-.3-1.766-.555-2.648-.782q-2.648-.631-5.3-1.059l-.908-.126A7.869,7.869,0,0,1,453.713,946c-.025-.3-.076-.631-.126-.933-.277-1.766-.631-3.506-1.059-5.272q-.328-1.312-.757-2.648c-.3-.883-.605-1.766-1.009-2.648a28.145,28.145,0,0,0-.984,2.648q-.429,1.337-.757,2.648c-.454,1.766-.782,3.506-1.059,5.272-.05.3-.1.605-.126.883a7.869,7.869,0,0,1-6.734,6.734l-.908.126c-1.766.277-3.531.605-5.3,1.059-.883.227-1.766.479-2.648.782a22.73,22.73,0,0,0-2.648,1.009,22.719,22.719,0,0,0,2.648,1.009c.883.3,1.766.53,2.648.757,1.766.454,3.531.807,5.3,1.085l.883.126a7.844,7.844,0,0,1,6.734,6.709c.025.3.076.605.126.883a49.183,49.183,0,0,0,1.059,5.3q.328,1.337.757,2.648c.3.883.605,1.766,1.009,2.648a18.94,18.94,0,0,0,1.009-2.648c.3-.883.555-1.766.782-2.648a49.186,49.186,0,0,0,1.059-5.3c.05-.3.1-.605.126-.908a7.9,7.9,0,0,1,6.734-6.734l.883-.126a49.19,49.19,0,0,0,5.3-1.059c.883-.227,1.766-.454,2.648-.757a20.638,20.638,0,0,0,2.623-.984A20.636,20.636,0,0,0,469.3,954.678Z" transform="translate(-52.419 -410.901)" fill="#f4c23f"/>
  </g>
</svg>
