<svg width="300" height="300" viewBox="0 0 79.375 79.375" xmlns="http://www.w3.org/2000/svg">
  <g fill="#ffe800">
    <path d="M79.375 73.031c0 3.5017-2.8421 6.3438-6.3535 6.3438H6.3435c-3.5017 0-6.3438-2.8421-6.3438-6.3438V6.344c0-3.5017 2.8421-6.3438 6.3438-6.3438h66.678c3.5114 0 6.3535 2.8421 6.3535 6.3438z"></path>
    <path d="M52.584 19.264H26.792c-.388 0-.6984.3104-.6984.6984v25.812c0 .37829.3104.68869.6984.68869l11.087.0099c-1.1252 5.2477-4.3262 10.146-8.6621 13.24-.16488.11642-.27159.30071-.29098.50441-.01985.20364.05814.3977.20362.55291l7.4981 7.4399c.13583.13585.3104.20363.4947.20363.13583 0 .26191-.0387.37829-.11642 9.8843-6.6252 15.782-17.654 15.782-29.507v-18.828c0-.388-.3104-.6984-.6984-.6984"></path>
    <path d="M52.584 19.109H26.792c-.388 0-.6984.3104-.6984.6984v25.802c0 .388.3104.6984.6984.6984h11.087c-1.1252 5.2574-4.3165 10.175-8.6621 13.24-.16488.11642-.27159.31042-.29098.50442-.01985.21328.05814.40741.20362.55291l7.4981 7.4496c.13583.13585.3104.20364.4947.20364.13583 0 .26191-.0486.37829-.12614 9.8552-6.6542 15.782-17.654 15.782-29.507v-18.818c0-.388-.3104-.6984-.6984-.6984"></path>
    <path d="M52.584 18.954H26.792c-.388 0-.6984.3104-.6984.68869v25.812c0 .388.3104.6984.6984.6984h11.087c-1.1252 5.2477-4.3165 10.166-8.6621 13.24-.16488.1165-.27159.3007-.29098.50441-.01985.20364.05814.40741.20362.55291l7.4981 7.4496c.13583.12614.3104.20364.4947.20364.13583 0 .26191-.04854.37829-.12614 9.8552-6.6542 15.782-17.654 15.782-29.507v-18.828c0-.37829-.3104-.68869-.6984-.68869"></path>
    <path d="M52.584 18.799H26.792c-.388 0-.6984.3104-.6984.68869v25.812c0 .388.3104.6984.6984.6984h11.087c-1.1252 5.2477-4.3165 10.166-8.6621 13.24-.16488.1165-.27159.3007-.29098.50441-.01985.20364.05814.40741.20362.55291l7.4981 7.4496c.13583.12614.3104.19393.4947.19393.13583 0 .26191-.0387.37829-.1165 9.8552-6.6639 15.782-17.654 15.782-29.507v-18.828c0-.37829-.3104-.68869-.6984-.68869"></path>
  </g>
  <g fill="#ffe600">
    <path d="M52.584 18.634H26.792c-.388 0-.6984.3104-.6984.6984v25.812c0 .37832.3104.68872.6984.68872l11.087.0099c-1.1252 5.2477-4.3165 10.166-8.6621 13.24-.16488.1165-.27159.3007-.29098.50441-.01985.20364.05814.40742.20362.55292l7.4981 7.4399c.13583.13585.3104.20363.4947.20363.13583 0 .26191-.0387.37829-.11642 9.8552-6.6639 15.782-17.654 15.782-29.507v-18.828c0-.388-.3104-.6984-.6984-.6984"></path>
    <path d="M52.584 18.478H26.792c-.388 0-.6984.3104-.6984.6984v25.812c0 .37832.3104.68872.6984.68872l11.087.0099c-1.1252 5.2477-4.3165 10.166-8.6621 13.231-.16488.11643-.27159.31042-.29098.51413-.01985.20364.05814.3977.20362.55291l7.4981 7.4399c.13583.13585.3104.20364.4947.20364.13583 0 .26191-.0387.37829-.11642 9.8552-6.664 15.782-17.664 15.782-29.517v-18.818c0-.388-.3104-.6984-.6984-.6984"></path>
    <path d="M52.584 18.323H26.792c-.388 0-.6984.3104-.6984.68869v25.812c0 .388.3104.6984.6984.6984h11.087c-1.1252 5.2477-4.3165 10.175-8.6621 13.24-.16488.1165-.27159.31042-.29098.50441-.01985.20364.05814.40742.20362.55291l7.4981 7.4496c.13583.12614.3104.20363.4947.20363.13583 0 .26191-.0486.37829-.12614 9.8552-6.6542 15.782-17.654 15.782-29.507v-18.828c0-.37829-.3104-.68869-.6984-.68869"></path>
    <path d="M52.584 18.168H26.792c-.388 0-.6984.3104-.6984.68869v25.812c0 .388.3104.6984.6984.6984h11.087c-1.1252 5.2477-4.3165 10.166-8.6621 13.24-.16488.11649-.27159.3007-.29098.50441-.01985.20364.05814.40742.20362.55291l7.4981 7.4496c.13583.12614.3104.19392.4947.19392.13583 0 .26191-.0387.37829-.11649 9.8552-6.6542 15.782-17.654 15.782-29.507v-18.828c0-.37829-.3104-.68869-.6984-.68869"></path>
  </g>
  <path d="M52.584 18.013H26.792c-.388 0-.6984.3104-.6984.68869v25.812c0 .37829.3104.6984.6984.6984h11.087c-1.1252 5.2477-4.3165 10.166-8.6621 13.24-.16488.11646-.27159.30069-.29098.50438-.01985.20364.05814.40742.20362.55291l7.4981 7.4399c.13583.13585.3104.20363.4947.20363.13583 0 .26191-.0387.37829-.11642 9.8552-6.664 15.782-17.654 15.782-29.507v-18.828c0-.37829-.3104-.68869-.6984-.68869" fill="#fde600"></path>
  <path d="M52.584 17.848H26.792c-.388 0-.6984.3104-.6984.6984v25.812c0 .37829.3104.68869.6984.68869l11.087.0099c-1.1252 5.2477-4.3165 10.166-8.6621 13.24-.16488.11646-.27159.30069-.29098.50439-.01985.20364.05814.3977.20362.55291l7.4981 7.4399c.13583.13585.3104.20364.4947.20364.13583 0 .26191-.0387.37829-.1165 9.8552-6.6639 15.782-17.654 15.782-29.507v-18.828c0-.388-.3104-.6984-.6984-.6984" fill="#fde600"></path>
  <g fill="#fae600">
    <path d="M52.584 17.693H26.792c-.388 0-.6984.3104-.6984.6984v25.802c0 .388.3104.6984.6984.6984h11.087c-1.1252 5.2574-4.3165 10.175-8.6621 13.24-.16488.11646-.27159.3104-.29098.50441-.01985.21328.05814.40742.20362.55291l7.4981 7.4496c.13583.13585.3104.20364.4947.20364.13583 0 .26191-.0486.37829-.12614 9.8552-6.6542 15.782-17.654 15.782-29.507v-18.818c0-.388-.3104-.6984-.6984-.6984"></path>
    <path d="M52.584 17.538H26.792c-.388 0-.6984.3104-.6984.68872v25.812c0 .388.3104.6984.6984.6984h11.087c-1.1252 5.2477-4.3165 10.175-8.6621 13.24-.16488.11646-.27159.3104-.29098.50441-.01985.20362.05814.4074.20362.55288l7.4981 7.4496c.13583.12614.3104.19392.4947.19392.13583 0 .26191-.0387.37829-.11649 9.8552-6.6542 15.782-17.654 15.782-29.507v-18.828c0-.37832-.3104-.68872-.6984-.68872"></path>
    <path d="M52.584 17.382H26.792c-.388 0-.6984.3104-.6984.68872v25.812c0 .37829.3104.6984.6984.6984h11.087c-1.1252 5.2477-4.3165 10.166-8.6621 13.24-.16488.11646-.27159.30069-.29098.50441-.01985.20362.05814.4074.20362.55288l7.4981 7.4399c.13583.13585.3104.20364.4947.20364.13583 0 .26191-.0387.37829-.11642 9.8552-6.6543 15.782-17.654 15.782-29.507v-18.828c0-.37832-.3104-.68872-.6984-.68872"></path>
    <path d="M52.584 17.217H26.792c-.388 0-.6984.3104-.6984.6984v25.812c0 .37829.3104.68869.6984.68869l11.087.0099c-1.1252 5.2477-4.3165 10.166-8.6621 13.24-.16488.11646-.27159.30069-.29098.50441-.01985.20362.05814.4074.20362.55288l7.4981 7.4399c.13583.13585.3104.20364.4947.20364.13583 0 .26191-.0387.37829-.11643 9.8552-6.6639 15.782-17.654 15.782-29.507v-18.828c0-.388-.3104-.6984-.6984-.6984"></path>
  </g>
  <path d="M52.584 17.062H26.792c-.388 0-.6984.3104-.6984.6984v25.812c0 .37829.3104.68869.6984.68869l11.087.0099c-1.1252 5.2477-4.3262 10.146-8.6621 13.231-.16488.11646-.27159.3104-.29098.51412-.01985.20362.05814.39768.20362.55288l7.4981 7.4399c.13583.13586.3104.20364.4947.20364.13583 0 .26191-.0387.37829-.1165 9.8843-6.6348 15.782-17.664 15.782-29.517v-18.818c0-.388-.3104-.6984-.6984-.6984" fill="#f8e600"></path>
  <path d="M52.584 17.46H26.792c-.16488 0-.30069.13583-.30069.30071v25.812c0 .1552.12614.291.30069.291l11.572.0099c-1.0573 5.5193-4.365 10.719-8.9143 13.958-.07748.04843-.11646.12614-.12615.21331-.0099.08741.01985.17457.08741.23267l7.4981 7.4496c.05807.05844.13583.08743.21331.08743.05814 0 .11646-.01968.16488-.0486 9.7582-6.557 15.598-17.47 15.598-29.177v-18.828c0-.16488-.13583-.30071-.30069-.30071" fill="#eed900"></path>
  <path d="M52.584 36.588V17.76H26.792v25.812h11.931c-1.1349 6.5669-5.0634 11.63-9.1083 14.492l7.5078 7.4496c9.3217-6.2565 15.462-16.859 15.462-28.925" fill="#fff"></path>
</svg>
